<?xml version="1.0" encoding="utf-8"?>
<!-- Generator: Adobe Illustrator 23.0.6, SVG Export Plug-In . SVG Version: 6.00 Build 0)  -->
<svg version="1.1" id="レイヤー_1" xmlns="http://www.w3.org/2000/svg" xmlns:xlink="http://www.w3.org/1999/xlink" x="0px"
	 y="0px" viewBox="0 0 640 640" style="enable-background:new 0 0 640 640;" xml:space="preserve">
<style type="text/css">
	.st0{fill:#C6C6C6;}
	.st1{fill:#9C9C9C;stroke:#636363;stroke-width:1.0178;}
	.st2{fill:#86FF8D;stroke:#626363;stroke-width:0.9925;stroke-miterlimit:10;}
	.st3{fill:#9C9C9C;stroke:#636363;stroke-width:1.0266;}
	.st4{fill:#9C9C9C;stroke:#636363;}
	.st5{fill:#9C9C9C;stroke:#636363;stroke-width:1.0249;}
	.st6{fill:#9C9C9C;stroke:#636363;stroke-width:1.0227;}
	.st7{fill:#9C9C9C;stroke:#636363;stroke-width:1.0184;}
	.st8{fill:#9C9C9C;stroke:#636363;stroke-width:0.9965;}
	.st9{fill:#9C9C9C;stroke:#636363;stroke-width:0.9832;}
	.st10{fill:#9C9C9C;stroke:#636363;stroke-width:1.0246;}
	.st11{fill:#9C9C9C;stroke:#636363;stroke-width:1.0198;}
	.st12{fill:#9C9C9C;stroke:#636363;stroke-width:1.0181;}
	.st13{fill:#9C9C9C;stroke:#636363;stroke-width:1.0221;}
	.st14{fill:#9C9C9C;stroke:#636363;stroke-width:1.0277;}
	.st15{fill:#9C9C9C;stroke:#636363;stroke-width:1.0045;}
	.st16{fill:#484848;}
	.st17{fill:#9C9C9C;stroke:#636363;stroke-width:1.0127;}
	.st18{fill:#9C9C9C;stroke:#636363;stroke-width:1.0126;}
	.st19{fill:#86FF8D;stroke:#626363;stroke-width:0.9485;stroke-miterlimit:10;}
	.st20{fill:#86FF8D;stroke:#636363;stroke-width:1.0204;}
	.st21{fill:#9C9C9C;stroke:#636363;stroke-width:1.0035;}
	.st22{fill-opacity:0;stroke:#636363;}
	.st23{fill:#86FF8D;stroke:#626363;stroke-miterlimit:10;}
	.st24{fill:#9C9C9C;stroke:#636363;stroke-width:1.0362;}
	.st25{fill:#9C9C9C;stroke:#636363;stroke-width:1.0311;}
	.st26{fill:#9C9C9C;stroke:#636363;stroke-width:0.9975;}
	.st27{fill:none;stroke:#000000;}
</style>
<path class="st0" d="M435.9,492.8h25.6v-17h55v75.9h-11.4l-13.8,7.5h-29.8v-20.9H271V512h-14.5v-32.6l130.5-0.1v-3.5h30.2L417,428
	l-131.5-0.2v7.8H242v-7.8h-93.3v-41.2l93.6-0.1v-27.2l43.3,0.2v27H417V256.7l-398-0.2v-41.2l82.4,0.1v-27h25.3v20.2h204.1v-20.2h27
	v20.2H417v-27.1h88.3l-0.1,164.8l-69.3-0.2v40.5l40.1,0.2v-27h41.9v26.8h39.8v41.2L518,428v6.4h-41.9V428h-40.2V492.8z M465,256.8
	h-29.1v10.9H465V256.8z"/>
<g>
	<path id="cpqxMfFIq_1_" class="st1" d="M356.7,400.7h25V428h-25V400.7z"/>
</g>
<g>
	<path id="b2dbx6GKru_6_" class="st2" d="M417,537.9h-10.1V512H417V537.9z"/>
</g>
<g>
	<path id="b2dbx6GKru_5_" class="st2" d="M406.9,537.9h-10.1V512h10.1V537.9z"/>
</g>
<g>
	<path id="e5yykqfo47_2_" class="st3" d="M271,512h73.3v26.3H271V512z"/>
</g>
<g>
	<path id="b2dbx6GKru_7_" class="st2" d="M263.8,512h-7.2v-32.6h7.2V512z"/>
</g>
<g>
	<path id="b2dbx6GKru_8_" class="st2" d="M271,512h-7.2v-32.6h7.2V512z"/>
</g>
<g>
	<path id="e5yykqfo47_3_" class="st3" d="M381.9,512h14.8v26.3h-14.8V512z"/>
</g>
<g>
	<path id="e5yykqfo47_4_" class="st3" d="M344.3,512h37.5v26.3h-37.5V512z"/>
</g>
<g>
	<path id="e5yykqfo47_5_" class="st3" d="M271,479.4h25.9v20.8H271V479.4z"/>
</g>
<g>
	<path id="e5yykqfo47_6_" class="st3" d="M296.9,479.4h47.5v20.8h-47.5V479.4z"/>
</g>
<g>
	<path id="e5yykqfo47_7_" class="st3" d="M344.3,479.4H387v20.8h-42.7V479.4z"/>
</g>
<g>
	<path id="e5yykqfo47_1_" class="st3" d="M387,475.8h30.2v24.4H387V475.8z"/>
</g>
<g>
	<path id="b2dbx6GKru_2_" class="st2" d="M262.7,386.9h-10.1v-27.2h10.1V386.9z"/>
</g>
<g>
	<path id="b2dbx6GKru_4_" class="st2" d="M496.1,386.8H486v-27h10.1V386.8z"/>
</g>
<g>
	<path id="b2dbx6GKru_3_" class="st2" d="M486.1,386.8H476v-27h10.1V386.8z"/>
</g>
<g>
	<path id="b2dbx6GKru_1_" class="st2" d="M252.6,386.9h-10.1v-27.2h10.1V386.9z"/>
</g>
<g>
	<path id="h342kf5rOt_1_" class="st4" d="M461.5,475.8h55v75.9h-11.4l-13.8,7.5h-29.8L461.5,475.8z"/>
</g>
<rect x="417" y="181.7" class="st4" width="88.2" height="61.7"/>
<g>
	<path id="bg2gGLr8d" class="st5" d="M518,400h39.7v28H518V400z"/>
</g>
<g>
	<path id="bcABEBncV" class="st6" d="M476.1,407.9H518v26.5h-41.9V407.9z"/>
</g>
<g>
	<path id="h342kf5rOt" class="st7" d="M435.9,400.7h40.2V428h-40.2V400.7z"/>
</g>
<g>
	<path id="e5yykqfo47" class="st8" d="M381.7,400.7H417V428h-35.3V400.7z"/>
</g>
<g>
	<path id="cpqxMfFIq" class="st9" d="M331.6,400.7h25.1V428h-25.1V400.7z"/>
</g>
<g>
	<path id="b4PLUaGcJP" class="st10" d="M285.6,400.7h46V428h-46V400.7z"/>
</g>
<g>
	<path id="b3sRyrhcLs" class="st11" d="M242.1,408.7h43.5v27.1h-43.5V408.7z"/>
</g>
<g>
	<path id="d1feAi20my" class="st12" d="M196.7,400.7h45.4V428h-45.4L196.7,400.7L196.7,400.7z"/>
</g>
<g>
	<path id="c4yc1bDNkL" class="st13" d="M148.8,400.7h47.9V428h-47.9L148.8,400.7L148.8,400.7z"/>
</g>
<g>
	<path id="c2gxu4vSHr" class="st14" d="M496.1,359.8h21.8v20.8h-21.8L496.1,359.8L496.1,359.8z"/>
</g>
<g>
	<g>
		<g>
			<path id="aHtBe3svq_8_" class="st15" d="M435.9,277.9h69.3v68.4h-69.3L435.9,277.9L435.9,277.9z"/>
		</g>
	</g>
</g>
<g>
	<g>
		<g>
			<path id="bcqciux0n" class="st16" d="M0,0"/>
		</g>
	</g>
</g>
<g>
	<path id="afGFMzJK0" class="st4" d="M357.9,208.6H417v34.8h-59.1V208.6z"/>
</g>
<g>
	<path id="k1C3CyHhJv" class="st4" d="M307.9,208.7h22.9v34.7h-22.9V208.7z"/>
</g>
<g>
	<path id="bb7aWzCde" class="st4" d="M285,208.7h22.9v34.7H285V208.7z"/>
</g>
<g>
	<path id="oWnfRRPqV" class="st17" d="M230.5,208.7H285v34.7h-54.5V208.7z"/>
</g>
<g>
	<path id="e3ut8oRq67" class="st17" d="M207.6,208.7h22.9v34.7h-22.9V208.7z"/>
</g>
<g>
	<path id="g3pXAxa2hk" class="st17" d="M148.7,208.7h58.9v34.7h-58.9L148.7,208.7L148.7,208.7z"/>
</g>
<g>
	<path id="a2LaRUYFg" class="st17" d="M126.7,208.7h22v34.7h-22V208.7z"/>
</g>
<g>
	<path id="bSGxFlfsB" class="st18" d="M19,215.7h82.4v41.1H19V215.7z"/>
</g>
<g>
	<path id="m207VAKAIK" class="st19" d="M330.8,208.7h13.4v20.2h-13.4V208.7z"/>
</g>
<g>
	<path id="c1YDwBgoiM" class="st20" d="M101.4,208.7H114v20.2h-12.6V208.7z"/>
</g>
<g>
	<path id="b2dbx6GKru" class="st2" d="M465,267.7v10.1h-29.1v-10.1H465z"/>
</g>
<g>
	<path id="d3Cww5TN9N" class="st21" d="M465,277.8v-21h40.2v21H465z"/>
</g>
<g>
	<g>
		<g>
			<path id="awy9e7b5q" class="st22" d="M0,0"/>
		</g>
	</g>
</g>
<g>
	<path id="arou4g1WF" class="st23" d="M344.2,208.7h13.7v20.2h-13.7V208.7z"/>
</g>
<g>
	<path id="hxMMEqdao" class="st23" d="M114,208.7h12.7v20.2H114V208.7z"/>
</g>
<g>
	<path id="ciqva6SZR" class="st24" d="M262.7,359.8h23V380h-23V359.8z"/>
</g>
<g>
	<path id="ciqva6SZR_1_" class="st25" d="M330.8,188.5h27v20.2h-27V188.5z"/>
</g>
<g>
	<path id="ciqva6SZR_2_" class="st26" d="M101.4,188.5h25.3v20.2h-25.3C101.4,208.7,101.4,188.5,101.4,188.5z"/>
</g>
<path class="st27" d="M435.9,492.8h25.6v-17h55v75.9h-11.4l-13.8,7.5h-29.8v-20.9H271V512h-14.5v-32.6l130.5-0.1v-3.5h30.2L417,428
	H285.6v7.8h-43.5V428h-93.3v-41.2l93.6,0.1v-27.2h43.3v27H417v-130H19v-41.2l82.4,0.1v-27.2h25.3v20.2h204.1v-20.2h27v20.1h59.1
	v-26.9h88.3l-0.1,164.6h-69.3v40.5H476v-27h41.9v27h39.8v41.2H518v6.4h-41.9V428h-40.2V492.8z M465,256.8h-29.1v10.9H465V256.8z"/>
</svg>
