<?xml version="1.0" encoding="utf-8"?>
<!-- Generator: Adobe Illustrator 23.0.6, SVG Export Plug-In . SVG Version: 6.00 Build 0)  -->
<svg version="1.1" id="レイヤー_1" xmlns="http://www.w3.org/2000/svg" xmlns:xlink="http://www.w3.org/1999/xlink" x="0px"
	 y="0px" viewBox="0 0 640 640" style="enable-background:new 0 0 640 640;" xml:space="preserve">
<style type="text/css">
	.st0{fill:#C6C6C6;}
	.st1{fill:#9C9C9C;stroke:#626363;stroke-miterlimit:10;}
	.st2{fill:#9C9C9C;}
	.st3{fill-opacity:0;stroke:#636363;}
	.st4{fill:#9C9C9C;stroke:#636363;}
	.st5{fill:#C0BEBE;}
	.st6{fill:#86FF8D;stroke:#626363;stroke-miterlimit:10;}
	.st7{fill:#86FF8D;stroke:#626363;stroke-width:0.9925;stroke-miterlimit:10;}
	.st8{fill:#9C9C9C;stroke:#636363;stroke-width:1.0277;}
	.st9{fill:none;stroke:#000000;}
	.st10{fill:#9C9C9C;stroke:#636363;stroke-width:1.0266;}
</style>
<path class="st0" d="M286.3,428.3v7.8h-43.5v-7.8h-93.3l0-41.2l93.4,0v-27.2l43.3,0l0.2,27.2h131.3l0-129.8l-398-0.2v-41.2l82.2-0.1
	v-27.2h25.3v20.2l204.1-0.1l0.3-19.8h27v20.2h59.1l0-27.1H506L506,346.8l-69.3-0.2v40.5l39.9-0.2v-27h41.9v27l40,0.2l0,41.2
	l-39.6,0.2v6.4h-41.9v-6.4L286.3,428.3z"/>
<g>
	<path id="d1PVjxat_1_" class="st1" d="M101.9,188.6h25.3v20.2h-25.3V188.6z"/>
</g>
<path class="st0" d="M417.7,538.4H271.5v-26.3H257v-32.6l130.5-0.1v-3.5h30.2V538.4z"/>
<g>
	<path id="a9wiOGtA2_1_" class="st1" d="M331.3,188.6h27.1v20.2h-27.1V188.6z"/>
</g>
<g>
	<g>
		<path id="b2ebChl8QI" class="st2" d="M518.5,400h39.7v28.1h-39.7V400z"/>
	</g>
	<g>
		<g>
			<path class="st3" d="M518.5,400h39.7v28.1h-39.7V400z"/>
		</g>
	</g>
</g>
<g>
	<g>
		<path id="a6QJRxwPet" class="st2" d="M476.6,407.8h41.9v26.7h-41.9V407.8z"/>
	</g>
	<g>
		<g>
			<path class="st3" d="M476.6,407.8h41.9v26.7h-41.9V407.8z"/>
		</g>
	</g>
</g>
<g>
	<g>
		<path id="bTGt0UUuR" class="st2" d="M434.9,400.7h41.6v27.4h-41.6V400.7z"/>
	</g>
	<g>
		<g>
			<path class="st3" d="M434.9,400.7h41.6v27.4h-41.6V400.7z"/>
		</g>
	</g>
</g>
<g>
	<g>
		<path id="bJwP6r2Mn" class="st2" d="M371.2,400.7h37.2v27.4h-37.2V400.7z"/>
	</g>
	<g>
		<g>
			<path class="st3" d="M371.2,400.7h37.2v27.4h-37.2V400.7z"/>
		</g>
	</g>
</g>
<g>
	<g>
		<path id="c5aujWAjGp" class="st2" d="M331.6,400.7h39.6v27.4h-39.6V400.7z"/>
	</g>
	<g>
		<g>
			<path class="st3" d="M331.6,400.7h39.6v27.4h-39.6V400.7z"/>
		</g>
	</g>
</g>
<g>
	<g>
		<path id="a7HGFk7MF" class="st2" d="M286.1,400.7h45.5v27.4h-45.5V400.7z"/>
	</g>
	<g>
		<g>
			<path class="st3" d="M286.1,400.7h45.5v27.4h-45.5V400.7z"/>
		</g>
	</g>
</g>
<g>
	<g>
		<path id="a1QE7QqZyx" class="st2" d="M242.6,408.7h43.5v27.2h-43.5V408.7z"/>
	</g>
	<g>
		<g>
			<path class="st3" d="M242.6,408.7h43.5v27.2h-43.5V408.7z"/>
		</g>
	</g>
</g>
<g>
	<g>
		<path id="argg2ElFs" class="st2" d="M196.7,400.7h45.9v27.4h-45.9V400.7z"/>
	</g>
	<g>
		<g>
			<path class="st3" d="M196.7,400.7h45.9v27.4h-45.9V400.7z"/>
		</g>
	</g>
</g>
<g>
	<g>
		<path id="e12QFXbwcO" class="st2" d="M149.3,400.7h47.4v27.4h-47.4V400.7z"/>
	</g>
	<g>
		<g>
			<path class="st3" d="M149.3,400.7h47.4v27.4h-47.4V400.7z"/>
		</g>
	</g>
</g>
<g>
	<g>
		<g>
			<path id="bSYlKhbik" class="st3" d="M0,0"/>
		</g>
	</g>
</g>
<g>
	<path id="aam1g7IZk" class="st4" d="M358.4,208.7h59.1v34.9h-59.1V208.7z"/>
</g>
<g>
	<path id="a9wiOGtA2" class="st1" d="M274.3,208.8h57v34.9h-57V208.8z"/>
</g>
<g>
	<path id="b1fVx7hkPZ" class="st1" d="M245.8,208.9h28.5v34.9h-28.5V208.9z"/>
</g>
<g>
	<path id="afrKZwwqj" class="st1" d="M192.5,208.8h29.3v34.9h-29.3V208.8z"/>
</g>
<g>
	<path id="d1PVjxat" class="st1" d="M127.2,208.9h65.3v34.7h-65.3V208.9z"/>
</g>
<g>
	<g>
		<path id="b4cG27pusX" class="st2" d="M19.5,215.7h82.4v41.2H19.5V215.7z"/>
	</g>
	<g>
		<g>
			<path class="st3" d="M19.5,215.7h82.4v41.2H19.5V215.7z"/>
		</g>
	</g>
</g>
<g>
	<g>
		<g>
			<path id="bi7C2oChk" class="st5" d="M0,0"/>
		</g>
	</g>
</g>
<g>
	<g>
		<path id="a2yb2Xoa26" class="st2" d="M408.4,400.7h26.5v27.4h-26.5V400.7z"/>
	</g>
	<g>
		<g>
			<path class="st3" d="M408.4,400.7h26.5v27.4h-26.5V400.7z"/>
		</g>
	</g>
</g>
<g>
	<path id="arou4g1WF" class="st6" d="M344.9,208.7h13.7v20.2h-13.7V208.7z"/>
</g>
<g>
	<path id="arou4g1WF_1_" class="st6" d="M113.5,208.8h13.7V229h-13.7V208.8z"/>
</g>
<g>
	<path id="b2dbx6GKru_3_" class="st7" d="M486.7,386.9h-10.1v-27h10.1V386.9z"/>
</g>
<g>
	<path id="c2gxu4vSHr" class="st8" d="M496.7,359.9h21.8v20.8h-21.8V359.9z"/>
</g>
<g>
	<path id="b2dbx6GKru_1_" class="st7" d="M253.1,387H243v-27.1h10.1V387z"/>
</g>
<g>
	<path id="c2gxu4vSHr_1_" class="st8" d="M264.4,359.9h21.8v20.8h-21.8V359.9z"/>
</g>
<g>
	<path id="afrKZwwqj_1_" class="st1" d="M221.8,208.8h24v34.9h-24V208.8z"/>
</g>
<path class="st9" d="M286.1,428.1v7.8h-43.5v-7.8h-93.3v-41.2L243,387v-27.2l43.3,0v27h131.3v-130h-398v-41.2l82.4,0.1v-27.2h25.3
	v20.2l204.1,0v-20.2h27l0,20.1l59.1,0l0-26.9h88.3l-0.1,164.6h-69.3v40.5h40.1v-27h41.9v27h39.8l0,41.2h-39.7v6.4h-41.9v-6.4H286.1z
	"/>
<g>
	<path id="b2dbx6GKru_5_" class="st7" d="M407.5,538.1h-10.1v-25.9h10.1V538.1z"/>
</g>
<g>
	<path id="e5yykqfo47_2_" class="st10" d="M271.6,512.1H345v26.3h-73.3V512.1z"/>
</g>
<g>
	<path id="b2dbx6GKru_8_" class="st7" d="M271.6,512.1h-7.2v-32.6h7.2V512.1z"/>
</g>
<g>
	<path id="e5yykqfo47_1_" class="st10" d="M387.6,475.9h30.2v24.4h-30.2V475.9z"/>
</g>
<g>
	<path id="e5yykqfo47_3_" class="st10" d="M345,512.1h52.4v26.3H345V512.1z"/>
</g>
<g>
	<path id="e5yykqfo47_4_" class="st10" d="M331.6,479.5h56v20.8h-56V479.5z"/>
</g>
<g>
	<path id="e5yykqfo47_5_" class="st10" d="M271.6,479.5h60v20.8h-60V479.5z"/>
</g>
<path class="st9" d="M417.7,538.4H271.5v-26.3H257v-32.6l130.5-0.1v-3.5h30.2V538.4z"/>
</svg>
