<svg id="レイヤー_1" data-name="レイヤー 1" xmlns="http://www.w3.org/2000/svg" viewBox="0 0 943 943"><defs><style>.cls-1{fill:#cc1717;}.cls-10,.cls-11,.cls-12,.cls-13,.cls-14,.cls-15,.cls-16,.cls-17,.cls-18,.cls-19,.cls-2,.cls-20,.cls-21,.cls-22,.cls-23,.cls-24,.cls-25,.cls-26,.cls-27,.cls-28,.cls-29,.cls-3,.cls-30,.cls-31,.cls-32,.cls-33,.cls-34,.cls-35,.cls-36,.cls-37,.cls-38,.cls-39,.cls-4,.cls-40,.cls-41,.cls-42,.cls-43,.cls-44,.cls-45,.cls-46,.cls-47,.cls-48,.cls-49,.cls-5,.cls-50,.cls-51,.cls-52,.cls-53,.cls-54,.cls-55,.cls-56,.cls-57,.cls-58,.cls-59,.cls-6,.cls-60,.cls-61,.cls-62,.cls-63,.cls-64,.cls-65,.cls-66,.cls-67,.cls-68,.cls-7,.cls-8,.cls-9{fill:none;stroke:#4d4d4d;stroke-miterlimit:10;}.cls-2{stroke-width:2.8px;}.cls-3{stroke-width:0.82px;}.cls-4{stroke-width:0.82px;}.cls-5{stroke-width:0.82px;}.cls-6{stroke-width:0.82px;}.cls-7{stroke-width:0.82px;}.cls-8{stroke-width:0.82px;}.cls-9{stroke-width:0.82px;}.cls-10{stroke-width:0.82px;}.cls-11{stroke-width:0.82px;}.cls-12{stroke-width:0.82px;}.cls-13{stroke-width:0.82px;}.cls-14{stroke-width:0.82px;}.cls-15{stroke-width:0.82px;}.cls-16{stroke-width:0.82px;}.cls-17{stroke-width:0.82px;}.cls-18{stroke-width:0.82px;}.cls-19{stroke-width:0.82px;}.cls-20{stroke-width:0.82px;}.cls-21{stroke-width:0.82px;}.cls-22{stroke-width:0.82px;}.cls-23{stroke-width:0.82px;}.cls-24{stroke-width:0.82px;}.cls-25{stroke-width:0.82px;}.cls-26{stroke-width:0.82px;}.cls-27{stroke-width:0.82px;}.cls-28{stroke-width:0.82px;}.cls-29{stroke-width:0.82px;}.cls-30{stroke-width:0.82px;}.cls-31{stroke-width:0.82px;}.cls-32{stroke-width:0.82px;}.cls-33{stroke-width:0.82px;}.cls-34{stroke-width:0.82px;}.cls-35{stroke-width:0.82px;}.cls-36{stroke-width:0.82px;}.cls-37{stroke-width:0.82px;}.cls-38{stroke-width:0.82px;}.cls-39{stroke-width:0.82px;}.cls-40{stroke-width:0.82px;}.cls-41{stroke-width:0.82px;}.cls-42{stroke-width:0.82px;}.cls-43{stroke-width:0.82px;}.cls-44{stroke-width:0.82px;}.cls-45{stroke-width:0.82px;}.cls-46{stroke-width:0.82px;}.cls-47{stroke-width:0.82px;}.cls-48{stroke-width:0.82px;}.cls-49{stroke-width:0.82px;}.cls-50{stroke-width:0.82px;}.cls-51{stroke-width:0.82px;}.cls-52{stroke-width:0.82px;}.cls-53{stroke-width:0.82px;}.cls-54{stroke-width:0.82px;}.cls-55{stroke-width:0.82px;}.cls-56{stroke-width:0.82px;}.cls-57{stroke-width:0.82px;}.cls-58{stroke-width:0.82px;}.cls-59{stroke-width:0.82px;}.cls-60{stroke-width:0.82px;}.cls-61{stroke-width:0.82px;}.cls-62{stroke-width:0.82px;}.cls-63{stroke-width:0.82px;}.cls-64{stroke-width:0.82px;}.cls-65{stroke-width:0.82px;}.cls-66{stroke-width:0.82px;}.cls-67{stroke-width:0.82px;}.cls-68{stroke-width:0.82px;}</style></defs><title>compass</title><polygon class="cls-1" points="505 33 438 33 471 0 505 33"/><line class="cls-2" x1="471.5" y1="53" x2="471.5" y2="113"/><line class="cls-2" x1="890" y1="472.5" x2="830" y2="472.5"/><line class="cls-2" x1="472.5" y1="891" x2="472.5" y2="831"/><line class="cls-2" x1="53" y1="472.5" x2="113" y2="472.5"/><line class="cls-3" x1="471.5" y1="63" x2="471.5" y2="103"/><line class="cls-4" x1="435.9" y1="64.55" x2="439.38" y2="104.4"/><line class="cls-5" x1="400.56" y1="69.21" x2="407.51" y2="108.6"/><line class="cls-6" x1="365.77" y1="76.92" x2="376.13" y2="115.56"/><line class="cls-7" x1="331.78" y1="87.64" x2="345.47" y2="125.22"/><line class="cls-7" x1="298.86" y1="101.27" x2="315.77" y2="137.53"/><line class="cls-8" x1="267.25" y1="117.73" x2="287.25" y2="152.37"/><line class="cls-9" x1="237.19" y1="136.88" x2="260.14" y2="169.64"/><line class="cls-10" x1="208.92" y1="158.57" x2="234.63" y2="189.21"/><line class="cls-11" x1="182.65" y1="182.65" x2="210.93" y2="210.93"/><line class="cls-12" x1="158.57" y1="208.92" x2="189.21" y2="234.63"/><line class="cls-13" x1="136.88" y1="237.19" x2="169.64" y2="260.14"/><line class="cls-14" x1="117.73" y1="267.25" x2="152.37" y2="287.25"/><line class="cls-15" x1="101.27" y1="298.86" x2="137.53" y2="315.77"/><line class="cls-16" x1="87.64" y1="331.78" x2="125.22" y2="345.47"/><line class="cls-17" x1="76.92" y1="365.77" x2="115.56" y2="376.13"/><line class="cls-18" x1="69.21" y1="400.56" x2="108.6" y2="407.51"/><line class="cls-19" x1="64.55" y1="435.9" x2="104.4" y2="439.38"/><line class="cls-20" x1="63" y1="471.5" x2="103" y2="471.5"/><line class="cls-21" x1="64.55" y1="507.1" x2="104.4" y2="503.62"/><line class="cls-22" x1="69.21" y1="542.44" x2="108.6" y2="535.49"/><line class="cls-23" x1="76.92" y1="577.23" x2="115.56" y2="566.87"/><line class="cls-24" x1="87.64" y1="611.22" x2="125.22" y2="597.53"/><line class="cls-25" x1="101.27" y1="644.14" x2="137.53" y2="627.23"/><line class="cls-26" x1="117.73" y1="675.75" x2="152.37" y2="655.75"/><line class="cls-27" x1="136.88" y1="705.81" x2="169.64" y2="682.86"/><line class="cls-28" x1="158.57" y1="734.08" x2="189.21" y2="708.37"/><line class="cls-29" x1="182.65" y1="760.35" x2="210.93" y2="732.07"/><line class="cls-30" x1="208.92" y1="784.43" x2="234.63" y2="753.79"/><line class="cls-31" x1="237.19" y1="806.12" x2="260.14" y2="773.36"/><line class="cls-32" x1="267.25" y1="825.27" x2="287.25" y2="790.63"/><line class="cls-33" x1="298.86" y1="841.73" x2="315.77" y2="805.47"/><line class="cls-34" x1="331.78" y1="855.36" x2="345.47" y2="817.78"/><line class="cls-35" x1="365.77" y1="866.08" x2="376.13" y2="827.44"/><line class="cls-36" x1="400.56" y1="873.79" x2="407.51" y2="834.4"/><line class="cls-37" x1="435.9" y1="878.45" x2="439.38" y2="838.6"/><line class="cls-20" x1="471.5" y1="880" x2="471.5" y2="840"/><line class="cls-38" x1="507.1" y1="878.45" x2="503.62" y2="838.6"/><line class="cls-39" x1="542.44" y1="873.79" x2="535.49" y2="834.4"/><line class="cls-40" x1="577.23" y1="866.08" x2="566.87" y2="827.44"/><line class="cls-41" x1="611.22" y1="855.36" x2="597.53" y2="817.78"/><line class="cls-42" x1="644.14" y1="841.73" x2="627.23" y2="805.47"/><line class="cls-43" x1="675.75" y1="825.27" x2="655.75" y2="790.63"/><line class="cls-44" x1="705.81" y1="806.12" x2="682.86" y2="773.36"/><line class="cls-45" x1="734.08" y1="784.43" x2="708.37" y2="753.79"/><line class="cls-46" x1="760.35" y1="760.35" x2="732.07" y2="732.07"/><line class="cls-47" x1="784.43" y1="734.08" x2="753.79" y2="708.37"/><line class="cls-48" x1="806.12" y1="705.81" x2="773.36" y2="682.86"/><line class="cls-49" x1="825.27" y1="675.75" x2="790.63" y2="655.75"/><line class="cls-50" x1="841.73" y1="644.14" x2="805.47" y2="627.23"/><line class="cls-51" x1="855.36" y1="611.22" x2="817.78" y2="597.53"/><line class="cls-52" x1="866.08" y1="577.23" x2="827.44" y2="566.87"/><line class="cls-53" x1="873.79" y1="542.44" x2="834.4" y2="535.49"/><line class="cls-54" x1="878.45" y1="507.1" x2="838.6" y2="503.62"/><line class="cls-55" x1="880" y1="471.5" x2="840" y2="471.5"/><line class="cls-56" x1="878.45" y1="435.9" x2="838.6" y2="439.38"/><line class="cls-57" x1="873.79" y1="400.56" x2="834.4" y2="407.51"/><line class="cls-58" x1="866.08" y1="365.77" x2="827.44" y2="376.13"/><line class="cls-59" x1="855.36" y1="331.78" x2="817.78" y2="345.47"/><line class="cls-60" x1="841.73" y1="298.86" x2="805.47" y2="315.77"/><line class="cls-61" x1="825.27" y1="267.25" x2="790.63" y2="287.25"/><line class="cls-31" x1="806.12" y1="237.19" x2="773.36" y2="260.14"/><line class="cls-62" x1="784.43" y1="208.92" x2="753.79" y2="234.63"/><line class="cls-11" x1="760.35" y1="182.65" x2="732.07" y2="210.93"/><line class="cls-63" x1="734.08" y1="158.57" x2="708.37" y2="189.21"/><line class="cls-13" x1="705.81" y1="136.88" x2="682.86" y2="169.64"/><line class="cls-64" x1="675.75" y1="117.73" x2="655.75" y2="152.37"/><line class="cls-65" x1="644.14" y1="101.27" x2="627.23" y2="137.53"/><line class="cls-66" x1="611.22" y1="87.64" x2="597.53" y2="125.22"/><line class="cls-67" x1="577.23" y1="76.92" x2="566.87" y2="115.56"/><line class="cls-68" x1="542.44" y1="69.21" x2="535.49" y2="108.6"/><line class="cls-17" x1="507.1" y1="64.55" x2="503.62" y2="104.4"/><polygon class="cls-1" points="505.43 33 438.43 33 471.43 0 505.43 33"/></svg>