<?xml version="1.0" encoding="utf-8"?>
<!-- Generator: Adobe Illustrator 23.0.6, SVG Export Plug-In . SVG Version: 6.00 Build 0)  -->
<svg version="1.1" id="レイヤー_1" xmlns="http://www.w3.org/2000/svg" xmlns:xlink="http://www.w3.org/1999/xlink" x="0px"
	 y="0px" viewBox="0 0 640 640" style="enable-background:new 0 0 640 640;" xml:space="preserve">
<style type="text/css">
	.st0{fill:#C0BEBE;}
	.st1{fill:#86FF8D;stroke:#626363;stroke-width:0.9925;stroke-miterlimit:10;}
	.st2{fill:#9C9C9C;}
	.st3{fill:none;stroke:#636363;stroke-width:1.0044;}
	.st4{fill:#C6C6C6;stroke:#040000;stroke-miterlimit:10;}
	.st5{fill:#9C9C9C;stroke:#636363;stroke-width:1.0266;}
	.st6{fill:#9C9C9C;stroke:#636363;}
	.st7{fill:none;stroke:#000000;}
	.st8{fill:none;stroke:#636363;stroke-width:1.0002;}
	.st9{fill:none;stroke:#636363;stroke-width:1.0001;}
	.st10{fill:none;stroke:#636363;stroke-width:0.9937;}
	.st11{fill:none;stroke:#636363;}
	.st12{fill:none;stroke:#636363;stroke-width:0.994;}
	.st13{fill:none;stroke:#636363;stroke-width:1.0157;}
	.st14{fill:none;stroke:#636363;stroke-width:1.0169;}
	.st15{fill:#9C9C9C;stroke:#626363;stroke-miterlimit:10;}
	.st16{fill:none;stroke:#636363;stroke-width:1.0033;}
	.st17{fill:none;stroke:#636363;stroke-width:1;}
	.st18{fill:none;stroke:#636363;stroke-width:0.9993;}
	.st19{fill:none;stroke:#636363;stroke-width:1.0203;}
	.st20{fill:none;stroke:#636363;stroke-width:0.8744;}
	.st21{fill:none;stroke:#636363;stroke-width:1.0133;}
	.st22{fill:#86FF8D;stroke:#616363;stroke-miterlimit:10;}
	.st23{fill:#86FF8D;}
	.st24{fill:#86FF8D;stroke:#626363;stroke-width:0.9485;stroke-miterlimit:10;}
</style>
<g>
	<path id="b" class="st0" d="M101.4,215.9v-7.1h24.1l291.5,0l0-26.9h88.3v164.6h-69.4V387H476v-27h41.9v27h39.8l0,41.2H518v6.4
		h-41.9v-6.4h-60H285.6v7.8h-43.5v-7.8h-93.3V387h93.3l-0.1-27h43.7v27H417V257H19v-41.2L101.4,215.9z"/>
</g>
<g>
	<path id="b2dbx6GKru_3_" class="st1" d="M496.3,387h-10.1v-27h10.1V387z"/>
</g>
<g>
	<path id="b2dbx6GKru_2_" class="st1" d="M262.4,387h-10.1v-27h10.1V387z"/>
</g>
<g>
	<g>
		<path id="k_1_" class="st2" d="M262.4,360h23.3v20.5h-23.3V360z"/>
	</g>
	<g>
		<path class="st3" d="M262.4,360h23.3v20.5h-23.3V360z"/>
	</g>
</g>
<path class="st4" d="M387,479.5V476h30.2v17h31.2h13.1v-17h55v75.9h-11.4l-13.8,7.5h-29.8v-20.9H271v-26.3h-14.5v-32.6L387,479.5z
	 M271,479.6h-7.2v32.6h7.2V479.6z"/>
<g>
	<path id="e5yykqfo47_2_" class="st5" d="M271,479.6h87.4v58.9H271V479.6z"/>
</g>
<g>
	<path id="e5yykqfo47_3_" class="st5" d="M358.4,512.2H397v26.3h-38.6V512.2z"/>
</g>
<g>
	<path id="e5yykqfo47_4_" class="st5" d="M358.4,479.6H387v20.8h-28.6V479.6z"/>
</g>
<g>
	<path id="a" class="st2" d="M180.1,139.8h11.2V167h-50.4v-7H7.4V75h135.3v-7.6h65v57.5h-27.6L180.1,139.8z"/>
</g>
<g>
	<path id="b2dbx6GKru_6_" class="st1" d="M417,538.1h-10.1v-25.9H417V538.1z"/>
</g>
<g>
	<path id="b2dbx6GKru_7_" class="st1" d="M263.8,512.2h-7.2v-32.6h7.2V512.2z"/>
</g>
<g>
	<path id="e5yykqfo47_1_" class="st5" d="M387,476h30.2v24.4H387V476z"/>
</g>
<g>
	<path id="h342kf5rOt_1_" class="st6" d="M461.5,476h55v75.9h-11.4l-13.8,7.5h-29.8L461.5,476z"/>
</g>
<g>
	<path class="st7" d="M180.1,139.8h11.2V167h-50.4v-7H7.4V75h135.3v-7.6h65v57.5h-27.6L180.1,139.8z"/>
</g>
<g>
	<path id="c" class="st2" d="M114.3,436.2h17.2v39.6h-17.8v3.3h69.5v98.4H32.6V479h26.5v-3.3H27.3v-39.6h64.1v-7.3H56v-36.2h70.8
		v36.2h-12.5V436.2z"/>
</g>
<g>
	<path class="st7" d="M114.3,436.2h17.2v39.6h-17.8v3.3h69.5v98.4H32.6V479h26.5v-3.3H27.3v-39.6h64.1v-7.3H56v-36.2h70.8v36.2
		h-12.5V436.2z"/>
</g>
<g>
	<g>
		<path id="e" class="st2" d="M518,400h39.7v28.2H518V400z"/>
	</g>
	<g>
		<path class="st8" d="M518,400h39.7v28.2H518V400z"/>
	</g>
</g>
<g>
	<g>
		<path id="f" class="st2" d="M476.2,407.8H518v26.8h-41.8L476.2,407.8L476.2,407.8z"/>
	</g>
	<g>
		<path class="st9" d="M476.2,407.8H518v26.8h-41.8L476.2,407.8L476.2,407.8z"/>
	</g>
</g>
<g>
	<g>
		<path id="g" class="st2" d="M435.7,400.9h40.4v27.3h-40.4V400.9z"/>
	</g>
	<g>
		<path class="st10" d="M435.7,400.9h40.4v27.3h-40.4V400.9z"/>
	</g>
</g>
<g>
	<g>
		<path id="h" class="st2" d="M379.5,401h37.2v27.1h-37.2V401z"/>
	</g>
	<g>
		<path class="st11" d="M379.5,401h37.2v27.1h-37.2V401z"/>
	</g>
</g>
<g>
	<g>
		<path id="i" class="st2" d="M331.6,401h47.9v27.1h-47.9V401z"/>
	</g>
	<g>
		<path class="st11" d="M331.6,401h47.9v27.1h-47.9V401z"/>
	</g>
</g>
<g>
	<g>
		<path id="j" class="st2" d="M285.7,401h45.8v27.1h-45.8V401z"/>
	</g>
	<g>
		<path class="st11" d="M285.7,401h45.8v27.1h-45.8V401z"/>
	</g>
</g>
<g>
	<g>
		<path id="k" class="st2" d="M242.1,408.7h43.5V436h-43.5V408.7z"/>
	</g>
	<g>
		<path class="st3" d="M242.1,408.7h43.5V436h-43.5V408.7z"/>
	</g>
</g>
<g>
	<g>
		<path id="l" class="st2" d="M197.5,400.7h44.6v27.5h-44.6V400.7z"/>
	</g>
	<g>
		<path class="st12" d="M197.5,400.7h44.6v27.5h-44.6V400.7z"/>
	</g>
</g>
<g>
	<g>
		<path id="m" class="st2" d="M148.8,400.7h48.7v27.5h-48.7V400.7z"/>
	</g>
	<g>
		<path class="st13" d="M148.8,400.7h48.7v27.5h-48.7V400.7z"/>
	</g>
</g>
<g>
	<g>
		<path id="n" class="st2" d="M496.3,360h21.6v20.5h-21.6V360z"/>
	</g>
	<g>
		<path class="st14" d="M496.3,360h21.6v20.5h-21.6V360z"/>
	</g>
</g>
<path class="st15" d="M435.6,278.2h69.7v68.3h-69.7L435.6,278.2L435.6,278.2z"/>
<g>
	<g>
		<path id="p" class="st2" d="M357.5,208.8h59.6v34.8h-59.6V208.8z"/>
	</g>
	<g>
		<path class="st16" d="M357.5,208.8h59.6v34.8h-59.6V208.8z"/>
	</g>
</g>
<g>
	<g>
		<path id="q" class="st2" d="M307.8,208.8h22.9v34.8h-22.9V208.8z"/>
	</g>
	<g>
		<path class="st11" d="M307.8,208.8h22.9v34.8h-22.9V208.8z"/>
	</g>
</g>
<g>
	<path id="r" class="st15" d="M475.8,181.9h29.5v61.7h-29.5V181.9z"/>
</g>
<g>
	<g>
		<path id="s" class="st2" d="M451.1,208.8h12.7v34.8h-12.7V208.8z"/>
	</g>
	<g>
		<path class="st17" d="M451.1,208.8h12.7v34.8h-12.7V208.8z"/>
	</g>
</g>
<g>
	<g>
		<path id="t" class="st2" d="M417,181.9h58.8v10.6H417V181.9z"/>
	</g>
	<g>
		<path class="st18" d="M417,181.9h58.8v10.6H417V181.9z"/>
	</g>
</g>
<g>
	<g>
		<path id="u" class="st2" d="M417.1,208.8h33.9v34.8h-33.9V208.8z"/>
	</g>
	<g>
		<path class="st19" d="M417.1,208.8h33.9v34.8h-33.9V208.8z"/>
	</g>
</g>
<g>
	<g>
		<path id="v" class="st2" d="M417,198.7h46.8v10.1H417V198.7z"/>
	</g>
	<g>
		<path class="st20" d="M417,198.7h46.8v10.1H417V198.7z"/>
	</g>
</g>
<g>
	<g>
		<path id="w" class="st2" d="M284.9,208.8h22.9v34.8h-22.9V208.8z"/>
	</g>
	<g>
		<path class="st11" d="M284.9,208.8h22.9v34.8h-22.9V208.8z"/>
	</g>
</g>
<g>
	<g>
		<path id="x" class="st2" d="M230.4,208.8h54.5v34.8h-54.5V208.8z"/>
	</g>
	<g>
		<path class="st11" d="M230.4,208.8h54.5v34.8h-54.5V208.8z"/>
	</g>
</g>
<g>
	<g>
		<path id="y" class="st2" d="M207.5,208.8h22.9v34.8h-22.9V208.8z"/>
	</g>
	<g>
		<path class="st11" d="M207.5,208.8h22.9v34.8h-22.9V208.8z"/>
	</g>
</g>
<g>
	<g>
		<path id="z" class="st2" d="M148.6,208.8h58.9v34.8h-58.9L148.6,208.8L148.6,208.8z"/>
	</g>
	<g>
		<path class="st11" d="M148.6,208.8h58.9v34.8h-58.9L148.6,208.8L148.6,208.8z"/>
	</g>
</g>
<g>
	<g>
		<path id="A" class="st2" d="M126.8,208.8h21.9v34.8h-21.9L126.8,208.8z"/>
	</g>
	<g>
		<path class="st11" d="M126.8,208.8h21.9v34.8h-21.9L126.8,208.8z"/>
	</g>
</g>
<g>
	<g>
		<path id="B" class="st2" d="M19,215.9h82.4V257H19V215.9z"/>
	</g>
	<g>
		<path class="st21" d="M19,215.9h82.4V257H19V215.9z"/>
	</g>
</g>
<path class="st7" d="M19,257v-40.1"/>
<g>
	<path id="F" class="st22" d="M101.5,208.8h12.6V229h-12.7L101.5,208.8z"/>
</g>
<g>
	<path id="G" class="st23" d="M465,267.7v10.6h-29.5v-10.6H465z"/>
</g>
<g>
	<path class="st11" d="M465,267.7v10.6h-29.5v-10.6H465z"/>
</g>
<path class="st7" d="M387,479.5V476h30.2v17h31.2h13.1v-17h55v75.9h-11.4l-13.8,7.5h-29.8v-20.9H271v-26.3h-14.5v-32.6L387,479.5z
	 M271,479.6h-7.2v32.6h7.2V479.6z"/>
<g>
	<path id="m207VAKAIK" class="st24" d="M330.7,208.8h13.4V229h-13.4V208.8z"/>
</g>
<g>
	<path d="M286.1,436.5h-44.5v-7.8h-93.3v-42.2h93.3v-27l44.6,0v27h130.3v-129h-398v-42.2l82.4,0.1v-7.1h24.6h291v-26.9h89.2
		l0.1,165.6h-69.4v39.5h39.1v-27h42.9v27h39.8v42.2h-39.7v6.4h-42.9v-6.4H286.1V436.5z M242.6,435.5h42.5v-7.8h191.5v6.4h40.9v-6.4
		h39.7v-40.2h-39.8v-27h-40.9v27h-41.1V346h69.4l-0.1-163.6l-87.2,0v26.9l-292,0h-23.6v7.1l-82.4-0.1v40.2h398v131H285.2v-27
		l-42.6,0v27h-93.3v40.2h93.3V435.5z"/>
</g>
</svg>
