<?xml version="1.0" encoding="utf-8"?>
<!-- Generator: Adobe Illustrator 23.0.6, SVG Export Plug-In . SVG Version: 6.00 Build 0)  -->
<svg version="1.1" id="レイヤー_1" xmlns="http://www.w3.org/2000/svg" xmlns:xlink="http://www.w3.org/1999/xlink" x="0px"
	 y="0px" viewBox="0 0 640 640" style="enable-background:new 0 0 640 640;" xml:space="preserve">
<style type="text/css">
	.st0{fill:#C6C6C6;stroke:#000000;}
	.st1{fill:none;}
	.st2{fill:#87CC7B;}
	.st3{fill:#FF8181;}
	.st4{opacity:0.5;fill:#F7CF9F;enable-background:new    ;}
</style>
<path class="st0" d="M592.3,447.8v-86.9h14.9v87L592.3,447.8z M612.5,360.8V293h10.6v67.8H612.5z M589.6,352.8V302h14.9v50.8H589.6z
	"/>
<g>
	<path id="H" d="M359.9,303.6h0.1h0.1h0.1h0.1h0.1h0.1h0.1h0.1h0.1h0.1h0.1l1.4,0.1l1.3,0.1l1.3,0.2l1.2,0.2l1.2,0.3l1.2,0.3
		l1.1,0.4l1.1,0.4l1.1,0.5l1,0.5l1,0.5l1,0.5l0.9,0.6l0.9,0.6l0.9,0.6l0.8,0.7l0.8,0.7l0.8,0.7l0.7,0.7l0.7,0.7l0.2,0.3l0.3,0.3
		l0.2,0.3l0.3,0.3l0.2,0.3l0.2,0.3l0.2,0.3l0.2,0.3l0.2,0.3l0.2,0.3l0.2,0.3l0.2,0.3l0.2,0.3l0.2,0.3l0.2,0.3l0.2,0.3l0.2,0.3
		l0.2,0.3l0.2,0.4l0.1,0.3l0,0l0,0l0,0l0,0l0,0l0,0l0,0l0,0l0,0l0,0l0,0l0,0l0,0l0,0l0,0l0,0l0,0l0,0l0,0l-0.1,0.2l-0.1,0.2
		l-0.1,0.2l-0.1,0.2L385,320l-0.1,0.2l-0.1,0.2l-0.1,0.2l-0.1,0.2l-0.1,0.2l-0.1,0.2l-0.1,0.2l-0.1,0.2l-0.1,0.2L384,322l-0.1,0.2
		l-0.1,0.2l-0.1,0.2l-0.1,0.2l-0.1,0.2l-0.8,1.1l-0.8,1.1l-0.9,1l-0.9,1l-1,1l-1,0.9L377,330l-1.1,0.8l-1.2,0.8l-1.2,0.7l-1.3,0.7
		l-1.3,0.6l-1.4,0.5l-1.4,0.5l-1.5,0.4l-1.5,0.4l-1.6,0.3l-1.7,0.2l-1.7,0.2l-1.8,0.1l-0.2-0.3l-0.2-0.3l-0.2-0.3l-0.2-0.3l-0.2-0.3
		l-0.2-0.3l-0.2-0.3l-0.2-0.4l-0.2-0.4l-0.2-0.4l-0.2-0.4l-0.2-0.4l-0.2-0.4l-0.2-0.4l-0.1-0.4l-0.1-0.4l-0.1-0.4l-0.1-0.4l-0.1-0.4
		l-0.1-0.4l-0.1-0.4l-0.1-0.4l-0.1-0.4l-0.1-0.4l-0.1-0.4l-0.1-0.4l-0.1-0.4l-0.1-0.4l-0.1-0.4l-0.1-0.5l-0.1-0.5l-0.1-0.5l-0.1-0.5
		v-0.5v-0.5v-0.5v-0.5v-0.5v-0.5v-0.5v-0.9V318l0.1-0.8l0.1-0.8l0.1-0.8l0.1-0.8l0.1-0.8l0.2-0.8l0.2-0.8l0.2-0.8l0.2-0.7l0.2-0.7
		l0.2-0.7l0.3-0.7l0.3-0.7l0.3-0.7l0.3-0.7l0.3-0.6l0.3-0.6l0.3-0.6v-0.1v-0.1v-0.1v-0.1v-0.1v-0.1v-0.1l0.1-0.1V304l0.1-0.1v-0.1
		l0.1-0.1l0.1-0.1l0.1-0.1l0.1-0.1l0.1-0.1h0.1h0.1h0.1h0.1h0.1h0.1h0.1h0.1h0.1h0.1h0.1h0.1L359.9,303.6z M376.6,324.8l-1.9,0.3
		l-2,0.2l-2,0.1h-2l-2-0.1l-1.9-0.3l-1.8-0.5l-0.3,0.9l-0.3,0.9l-0.3,1l-0.3,1l-0.3,1l-0.3,1l-0.2,1l-0.2,1.1l-0.2,1.1l2.9-0.2
		l2.7-0.5l2.5-0.7l2.4-1l2.2-1.1l2-1.3l1.8-1.4l1.6-1.6l1.5-1.7l-1.7,0.5L376.6,324.8z M358.5,310.8l-0.7,2.4l-0.5,2.6l-0.3,2.7v2.7
		l0.2,2.6l0.5,2.5l0.8,2.3l0.5-2.1l0.6-2l0.7-1.9l0.8-1.8l0.9-1.7l1-1.6l1.1-1.5l1.2-1.4l1.2-1.4l-0.6-0.8l-0.6-0.8l-0.6-0.8
		l-0.6-0.8l-0.7-0.7l-0.7-0.7l-0.7-0.7l-0.8-0.6l-0.8-0.6l-1,1.8L358.5,310.8z M366.1,318.6l-0.9,1.4l-0.8,1.6l1.5,0.3l1.5,0.2
		l1.6,0.1h1.8l-0.4-1.8l-0.6-1.5l-0.7-1.4l-0.8-1.4l-1.2,1.2L366.1,318.6z M367.7,310.1l1.2,1.4l1.1,1.5l1,1.6l0.9,1.7l0.8,1.8
		l0.7,1.9l0.6,2.1l1.1-0.2l1.1-0.2l1-0.2l1-0.2l1-0.2l1-0.3l0.9-0.3l0.9-0.3l0.9-0.4l-1.3-2.1l-1.5-1.9l-1.6-1.7l-1.8-1.6l-2-1.4
		l-2.2-1.2l-2.3-1l-2.5-0.8l-2.7-0.6l1.3,1.3L367.7,310.1z"/>
</g>
<g>
	<path class="st1" d="M359.9,303.6h0.1h0.1h0.1h0.1h0.1h0.1h0.1h0.1h0.1h0.1h0.1l1.4,0.1l1.3,0.1l1.3,0.2l1.2,0.2l1.2,0.3l1.2,0.3
		l1.1,0.4l1.1,0.4l1.1,0.5l1,0.5l1,0.5l1,0.5l0.9,0.6l0.9,0.6l0.9,0.6l0.8,0.7l0.8,0.7l0.8,0.7l0.7,0.7l0.7,0.7l0.2,0.3l0.3,0.3
		l0.2,0.3l0.3,0.3l0.2,0.3l0.2,0.3l0.2,0.3l0.2,0.3l0.2,0.3l0.2,0.3l0.2,0.3l0.2,0.3l0.2,0.3l0.2,0.3l0.2,0.3l0.2,0.3l0.2,0.3
		l0.2,0.3l0.2,0.4l0.1,0.3l0,0l0,0l0,0l0,0l0,0l0,0l0,0l0,0l0,0l0,0l0,0l0,0l0,0l0,0l0,0l0,0l0,0l0,0l0,0l-0.1,0.2l-0.1,0.2
		l-0.1,0.2l-0.1,0.2L385,320l-0.1,0.2l-0.1,0.2l-0.1,0.2l-0.1,0.2l-0.1,0.2l-0.1,0.2l-0.1,0.2l-0.1,0.2l-0.1,0.2L384,322l-0.1,0.2
		l-0.1,0.2l-0.1,0.2l-0.1,0.2l-0.1,0.2l-0.8,1.1l-0.8,1.1l-0.9,1l-0.9,1l-1,1l-1,0.9L377,330l-1.1,0.8l-1.2,0.8l-1.2,0.7l-1.3,0.7
		l-1.3,0.6l-1.4,0.5l-1.4,0.5l-1.5,0.4l-1.5,0.4l-1.6,0.3l-1.7,0.2l-1.7,0.2l-1.8,0.1l-0.2-0.3l-0.2-0.3l-0.2-0.3l-0.2-0.3l-0.2-0.3
		l-0.2-0.3l-0.2-0.3l-0.2-0.4l-0.2-0.4l-0.2-0.4l-0.2-0.4l-0.2-0.4l-0.2-0.4l-0.2-0.4l-0.1-0.4l-0.1-0.4l-0.1-0.4l-0.1-0.4l-0.1-0.4
		l-0.1-0.4l-0.1-0.4l-0.1-0.4l-0.1-0.4l-0.1-0.4l-0.1-0.4l-0.1-0.4l-0.1-0.4l-0.1-0.4l-0.1-0.4l-0.1-0.5l-0.1-0.5l-0.1-0.5l-0.1-0.5
		v-0.5v-0.5v-0.5v-0.5v-0.5v-0.5v-0.5v-0.9V318l0.1-0.8l0.1-0.8l0.1-0.8l0.1-0.8l0.1-0.8l0.2-0.8l0.2-0.8l0.2-0.8l0.2-0.7l0.2-0.7
		l0.2-0.7l0.3-0.7l0.3-0.7l0.3-0.7l0.3-0.7l0.3-0.6l0.3-0.6l0.3-0.6v-0.1v-0.1v-0.1v-0.1v-0.1v-0.1v-0.1l0.1-0.1V304l0.1-0.1v-0.1
		l0.1-0.1l0.1-0.1l0.1-0.1l0.1-0.1l0.1-0.1h0.1h0.1h0.1h0.1h0.1h0.1h0.1h0.1h0.1h0.1h0.1h0.1L359.9,303.6z M376.6,324.8l-1.9,0.3
		l-2,0.2l-2,0.1h-2l-2-0.1l-1.9-0.3l-1.8-0.5l-0.3,0.9l-0.3,0.9l-0.3,1l-0.3,1l-0.3,1l-0.3,1l-0.2,1l-0.2,1.1l-0.2,1.1l2.9-0.2
		l2.7-0.5l2.5-0.7l2.4-1l2.2-1.1l2-1.3l1.8-1.4l1.6-1.6l1.5-1.7l-1.7,0.5L376.6,324.8z M358.5,310.8l-0.7,2.4l-0.5,2.6l-0.3,2.7v2.7
		l0.2,2.6l0.5,2.5l0.8,2.3l0.5-2.1l0.6-2l0.7-1.9l0.8-1.8l0.9-1.7l1-1.6l1.1-1.5l1.2-1.4l1.2-1.4l-0.6-0.8l-0.6-0.8l-0.6-0.8
		l-0.6-0.8l-0.7-0.7l-0.7-0.7l-0.7-0.7l-0.8-0.6l-0.8-0.6l-1,1.8L358.5,310.8z M366.1,318.6l-0.9,1.4l-0.8,1.6l1.5,0.3l1.5,0.2
		l1.6,0.1h1.8l-0.4-1.8l-0.6-1.5l-0.7-1.4l-0.8-1.4l-1.2,1.2L366.1,318.6z M367.7,310.1l1.2,1.4l1.1,1.5l1,1.6l0.9,1.7l0.8,1.8
		l0.7,1.9l0.6,2.1l1.1-0.2l1.1-0.2l1-0.2l1-0.2l1-0.2l1-0.3l0.9-0.3l0.9-0.3l0.9-0.4l-1.3-2.1l-1.5-1.9l-1.6-1.7l-1.8-1.6l-2-1.4
		l-2.2-1.2l-2.3-1l-2.5-0.8l-2.7-0.6l1.3,1.3L367.7,310.1z"/>
</g>
<rect x="405.7" y="27.3" class="st2" width="132.3" height="99.1"/>
<path class="st2" d="M425.6,52.6h-370c-7,0-12.6-5.7-12.6-12.6l0,0c0-7,5.7-12.6,12.6-12.6h370c7,0,12.6,5.7,12.6,12.6l0,0
	C438.2,46.9,432.6,52.6,425.6,52.6z"/>
<path class="st2" d="M344.3,126.4h-16c-9.6,0-17.5-7.8-17.5-17.5v-3.8c0-9.6,7.8-17.5,17.5-17.5h16c9.6,0,17.5,7.8,17.5,17.5v3.8
	C361.8,118.6,354,126.4,344.3,126.4z"/>
<path class="st2" d="M592.3,207.2V37.4c0-5.6,4.5-10.1,10.1-10.1l0,0c5.6,0,10.1,4.5,10.1,10.1v169.7c0,5.6-4.5,10.1-10.1,10.1l0,0
	C596.8,217.3,592.3,212.7,592.3,207.2z"/>
<path class="st2" d="M564.6,193l29.2-20.8c4.6-3.2,10.9-2.2,14.1,2.4l0,0c3.2,4.6,2.2,10.9-2.4,14.1l-29.2,20.8
	c-4.6,3.2-10.9,2.2-14.1-2.4l0,0C559,202.5,560,196.2,564.6,193z"/>
<path class="st3" d="M583.9,223.9l22.5-6.7l14.5,49l-22.5,6.7L583.9,223.9z"/>
<ellipse class="st2" cx="522.9" cy="288" rx="17.2" ry="18.6"/>
<circle class="st2" cx="524.4" cy="342.7" r="15.8"/>
<path class="st4" d="M140.9,160h-26.8v49.1h12.7v-26.7c0-3.6,2.9-6.5,6.5-6.5h52.2c3.8,0,7.4,1.3,10.3,3.7l34.7,29h113.7h13.4v-0.9
	c0-3.6-2.9-6.5-6.5-6.5h-107c-5.4,0-10.6-1.9-14.8-5.3l-23.9-19.4c-3.4-2.8-5.4-6.9-5.4-11.3v-40.3h-19.9v14.9h11.2V167h-50.4
	L140.9,160L140.9,160z"/>
<path class="st4" d="M417.2,435.1v-7.6h18.4v7.6c0,3.6,2.9,6.5,6.5,6.5h109.5c3.4,0,6.1,2.7,6.1,6.1l0,0c0,3.4-2.7,6.1-6.1,6.1
	H442.3c-3.6,0-6.5,2.9-6.5,6.5v9.4c0,3.4,2.7,6.1,6.1,6.1H455c3.6,0,6.5,2.9,6.5,6.5v10.5h-44.3v-32.5c0-3.6-2.9-6.5-6.5-6.5H131.3
	V352.1c0-3.6,2.9-6.5,6.5-6.5h10.4c3.6,0,6.5-2.9,6.5-6.5V257H167v82.1c0,3.6,2.9,6.5,6.5,6.5l243.5,0v14.2l-175.4-0.5v27h-11.2
	v-20.1c0-3.6-2.9-6.4-6.4-6.4h-68.7c-3.6,0-6.5,2.9-6.5,6.5v69.3c0,3.6,2.9,6.5,6.5,6.5l255.4-0.5
	C414.3,441.6,417.2,438.7,417.2,435.1z"/>
</svg>
