<svg id="レイヤー_1" data-name="レイヤー 1" xmlns="http://www.w3.org/2000/svg" viewBox="0 0 100 114"><defs><style>.cls-1{fill:#b9731c;}.cls-2{fill:#fff;}</style></defs><title>1</title><path class="cls-1" d="M125.64,71a50,50,0,0,1-43.81,49.62c-2,.25-4.1,14.38-6.19,14.38s-4.16-14.13-6.18-14.38A50,50,0,1,1,125.64,71Z" transform="translate(-25.64 -21)"/><path class="cls-2" d="M68.18,44.13V57a1.49,1.49,0,0,1-1.48,1.49h-.4A1.49,1.49,0,0,1,64.81,57V44.07a2.79,2.79,0,0,0-5.58,0V57a1.49,1.49,0,0,1-1.48,1.49h-.4A1.49,1.49,0,0,1,55.86,57V44.13a2.7,2.7,0,1,0-5.4,0V56.43c0,6.81,1.6,8.58,4.29,10.71,2.17,1.71,4,2.68,4,6.93v27.31h6.51V74.07c0-4.25,1.85-5.22,4-6.93C72,65,73.61,63.24,73.58,56.43V44.17A2.7,2.7,0,1,0,68.18,44.13Z" transform="translate(-25.64 -21)"/><path class="cls-2" d="M89.13,45.4c-1.38,3.88-5.36,13-5.61,21C83.13,78.83,90.76,77,90.89,85.14v16.31h6.48l0,.08V45.4C97.4,40.68,91.28,39.37,89.13,45.4Z" transform="translate(-25.64 -21)"/></svg>