<svg id="レイヤー_1" data-name="レイヤー 1" xmlns="http://www.w3.org/2000/svg" viewBox="0 0 100 114"><defs><style>.cls-1{fill:#ad60a2;}.cls-2{fill:#fff;}</style></defs><title>10</title><path class="cls-1" d="M1286.62,71a50,50,0,0,1-43.81,49.62c-2,.25-4.1,14.38-6.19,14.38s-4.16-14.13-6.18-14.38A50,50,0,1,1,1286.62,71Z" transform="translate(-1186.62 -21)"/><rect class="cls-2" x="41.14" y="69.17" width="2.44" height="15.4"/><path class="cls-2" d="M1249.51,59c.51-14-8.69-23-20.34-23s-20.85,8.94-20.35,23c.52,14.6,10.87,23.66,17.72,25.67l-1.93,3.56h9.12l-1.93-3.56C1238.64,82.64,1249,73.59,1249.51,59Zm-25.06-11.55a10.77,10.77,0,0,0-2.26,1.77,12.49,12.49,0,0,0-3.07,5.82,1.88,1.88,0,0,1-3.65-.87,16.18,16.18,0,0,1,4-7.55,14.26,14.26,0,0,1,3.07-2.41,1.88,1.88,0,1,1,1.89,3.24Z" transform="translate(-1186.62 -21)"/><rect class="cls-2" x="63.44" y="71.07" width="1.84" height="11.62"/><path class="cls-2" d="M1266.4,68.54c.37-10.36-6.27-17-14.8-17.3a30.41,30.41,0,0,1,.73,7.84,31.7,31.7,0,0,1-11.16,23.37,17.93,17.93,0,0,0,7.9,5.46l-1.46,2.69h6.88L1253,87.91C1258.2,86.4,1266,79.56,1266.4,68.54Z" transform="translate(-1186.62 -21)"/></svg>