<svg id="レイヤー_1" data-name="レイヤー 1" xmlns="http://www.w3.org/2000/svg" viewBox="0 0 100 114"><defs><style>.cls-1{fill:#c2ae4c;}.cls-2{fill:#fff;}</style></defs><title>11</title><path class="cls-1" d="M1431.74,71a50,50,0,0,1-43.81,49.62c-2,.25-4.09,14.38-6.19,14.38s-4.15-14.13-6.18-14.38A50,50,0,1,1,1431.74,71Z" transform="translate(-1331.74 -21)"/><path class="cls-2" d="M1399.22,43.3h-20.37a5.55,5.55,0,0,0-3.9,1.62l-12.7,12.7a5.54,5.54,0,0,0-1.61,3.9v32a5,5,0,0,0,5,5h33.56a5,5,0,0,0,5-5V48.32A5,5,0,0,0,1399.22,43.3Zm-16.08,13.88h11.61v2.36h-11.61Zm-19.05,2.59,13-13V58.08c0,1.22-.47,1.69-1.69,1.69Zm30.66,28.39h-24.63V85.81h24.63Zm0-9.54h-24.63V76.26h24.63Zm0-9.54h-24.63V66.72h24.63Z" transform="translate(-1331.74 -21)"/></svg>