<svg id="レイヤー_1" data-name="レイヤー 1" xmlns="http://www.w3.org/2000/svg" viewBox="0 0 100 114"><defs><style>.cls-1{fill:#c65b86;}.cls-2{fill:#fff;}</style></defs><title>12</title><path class="cls-1" d="M1576.86,71a50,50,0,0,1-43.81,49.62c-2,.25-4.09,14.38-6.19,14.38s-4.15-14.13-6.18-14.38A50,50,0,1,1,1576.86,71Z" transform="translate(-1476.86 -21)"/><polygon class="cls-2" points="50.32 21.76 26.03 29.02 26.03 33.21 27.7 33.21 27.7 35.31 72.94 35.31 72.94 33.21 74.62 33.21 74.62 29.02 50.32 21.76"/><polygon class="cls-2" points="72.94 67 27.7 67 27.7 70.35 26.03 70.35 26.03 75.38 74.62 75.38 74.62 70.35 72.94 70.35 72.94 67"/><polygon class="cls-2" points="63.73 63.37 63.73 65.05 70.43 65.05 70.43 63.37 69.59 63.37 69.59 39.49 70.43 39.49 70.43 37.82 63.73 37.82 63.73 39.49 64.57 39.49 64.57 63.37 63.73 63.37"/><polygon class="cls-2" points="52.56 63.37 52.56 65.05 59.26 65.05 59.26 63.37 58.42 63.37 58.42 39.49 59.26 39.49 59.26 37.82 52.56 37.82 52.56 39.49 53.4 39.49 53.4 63.37 52.56 63.37"/><polygon class="cls-2" points="41.39 63.37 41.39 65.05 48.09 65.05 48.09 63.37 47.25 63.37 47.25 39.49 48.09 39.49 48.09 37.82 41.39 37.82 41.39 39.49 42.22 39.49 42.22 63.37 41.39 63.37"/><polygon class="cls-2" points="30.22 63.37 30.22 65.05 36.92 65.05 36.92 63.37 36.08 63.37 36.08 39.49 36.92 39.49 36.92 37.82 30.22 37.82 30.22 39.49 31.05 39.49 31.05 63.37 30.22 63.37"/></svg>