<svg id="レイヤー_1" data-name="レイヤー 1" xmlns="http://www.w3.org/2000/svg" viewBox="0 0 99.26 113.15"><defs><style>.cls-1{fill:#d58751;}.cls-2{fill:#fff;}.cls-3{fill:none;stroke:#fff;stroke-miterlimit:10;stroke-width:5px;}</style></defs><title>13</title><path class="cls-1" d="M1721.61,70.63a49.63,49.63,0,0,1-43.48,49.25c-2,.25-4.06,14.27-6.14,14.27s-4.13-14-6.14-14.27a49.63,49.63,0,1,1,55.76-49.25Z" transform="translate(-1622.36 -21)"/><path class="cls-2" d="M1691.1,95.83h-36.33a5.87,5.87,0,0,1-5.69-6l-3.82-24.19a5.87,5.87,0,0,1,5.69-6h44a5.87,5.87,0,0,1,5.7,6l-3.82,24.19A5.87,5.87,0,0,1,1691.1,95.83Z" transform="translate(-1622.36 -21)"/><path class="cls-3" d="M1660.16,55.51a12.78,12.78,0,0,1,25.55,0" transform="translate(-1622.36 -21)"/></svg>