<svg id="レイヤー_1" data-name="レイヤー 1" xmlns="http://www.w3.org/2000/svg" viewBox="0 0 99.12 113"><defs><style>.cls-1{fill:#5ba89a;}.cls-2{fill:#fff;}</style></defs><title>14</title><path class="cls-1" d="M1866.67,70.56a49.57,49.57,0,0,1-43.43,49.19c-2,.25-4,14.25-6.13,14.25s-4.12-14-6.13-14.25a49.56,49.56,0,1,1,55.69-49.19Z" transform="translate(-1767.55 -21)"/><path class="cls-2" d="M1820.29,44.7a11.74,11.74,0,0,0-10.56,6.61,11.74,11.74,0,1,0-10.56,16.86h21.12a11.74,11.74,0,1,0,0-23.47Zm-21.12,16.17a4.44,4.44,0,1,1,4.43-4.44A4.44,4.44,0,0,1,1799.17,60.87Zm21.12,0a4.44,4.44,0,1,1,4.44-4.44A4.43,4.43,0,0,1,1820.29,60.87Z" transform="translate(-1767.55 -21)"/><path class="cls-2" d="M1825.15,70.85h-31.61a2.28,2.28,0,0,0-2.28,2.27V91.31a2.28,2.28,0,0,0,2.28,2.28h31.61a2.27,2.27,0,0,0,2.27-2.28V73.12A2.27,2.27,0,0,0,1825.15,70.85Z" transform="translate(-1767.55 -21)"/><path class="cls-2" d="M1844.7,74.9a2.28,2.28,0,0,0-2-.42l-11.11,2.71a2.27,2.27,0,0,0-1.74,2.21v5.39a2.27,2.27,0,0,0,1.74,2.21l11.11,2.71a2.28,2.28,0,0,0,2.82-2.21V76.69A2.27,2.27,0,0,0,1844.7,74.9Z" transform="translate(-1767.55 -21)"/></svg>