<svg id="レイヤー_1" data-name="レイヤー 1" xmlns="http://www.w3.org/2000/svg" xmlns:xlink="http://www.w3.org/1999/xlink" viewBox="0 0 100 114.08"><defs><style>.cls-1{fill:none;}.cls-2{fill:#e6e6e6;}.cls-3{fill:#3a5b86;}.cls-4{clip-path:url(#clip-path);}.cls-5{fill:#c85828;}</style><clipPath id="clip-path" transform="translate(-461.3 -193.74)"><path class="cls-1" d="M561,243.59a49.83,49.83,0,0,1-43.67,49.46c-2,.25-4.08,14.34-6.17,14.34S507,293.3,505,293.05a49.84,49.84,0,1,1,56-49.46Z"/></clipPath></defs><title>16</title><path class="cls-2" d="M561.3,243.74a50,50,0,0,1-43.82,49.62c-2,.25-4.09,14.38-6.18,14.38s-4.16-14.13-6.19-14.38a50,50,0,1,1,56.19-49.62Z" transform="translate(-461.3 -193.74)"/><path class="cls-3" d="M478,244.29a5,5,0,0,0,1,3.08,6.2,6.2,0,0,0,5.11,2.06c3.5,0,5.6-1.57,5.6-4.2a3.57,3.57,0,0,0-1.75-3.22c-1.05-.56-1.26-.59-6.09-1.71a12.43,12.43,0,0,1-5.29-2.14,6.89,6.89,0,0,1-2.69-5.67c0-4.87,3.92-8,9.94-8,4,0,7,1.22,8.72,3.53a9.55,9.55,0,0,1,1.71,4.06l-5,.6a4.58,4.58,0,0,0-1.06-2.49,5.55,5.55,0,0,0-4.37-1.68c-3.05,0-5.11,1.54-5.11,3.82a3.32,3.32,0,0,0,2.38,3.18c.77.32,1.05.39,4.93,1.26a15.39,15.39,0,0,1,5.71,2.14,6.89,6.89,0,0,1,2.91,6,8.14,8.14,0,0,1-2.21,6c-1.85,1.78-4.62,2.66-8.37,2.66a14.07,14.07,0,0,1-7.35-1.82,8.32,8.32,0,0,1-3.08-4,12.3,12.3,0,0,1-.66-2.91Z" transform="translate(-461.3 -193.74)"/><path class="cls-3" d="M503.83,244.29a5,5,0,0,0,1,3.08,6.2,6.2,0,0,0,5.11,2.06c3.5,0,5.6-1.57,5.6-4.2a3.57,3.57,0,0,0-1.75-3.22c-1-.56-1.26-.59-6.09-1.71a12.43,12.43,0,0,1-5.29-2.14,6.89,6.89,0,0,1-2.69-5.67c0-4.87,3.92-8,9.94-8,4,0,7,1.22,8.71,3.53a9.43,9.43,0,0,1,1.72,4.06l-5,.6a4.5,4.5,0,0,0-1-2.49,5.55,5.55,0,0,0-4.37-1.68c-3.05,0-5.11,1.54-5.11,3.82a3.32,3.32,0,0,0,2.38,3.18c.77.32,1,.39,4.93,1.26a15.39,15.39,0,0,1,5.71,2.14,6.91,6.91,0,0,1,2.9,6,8.18,8.18,0,0,1-2.2,6c-1.86,1.78-4.62,2.66-8.37,2.66a14.07,14.07,0,0,1-7.35-1.82,8.32,8.32,0,0,1-3.08-4,12.3,12.3,0,0,1-.66-2.91Z" transform="translate(-461.3 -193.74)"/><path class="cls-3" d="M548.75,225.1a27.42,27.42,0,0,0-.28,4.49v18.86a27.81,27.81,0,0,0,.28,4.52h-5.22a26.73,26.73,0,0,0,.28-4.52v-7.91H529.74v7.91A27.58,27.58,0,0,0,530,253H524.8a26.43,26.43,0,0,0,.28-4.52V229.62a26.81,26.81,0,0,0-.28-4.52H530a28.86,28.86,0,0,0-.28,4.49v6.75h14.07v-6.72a26.51,26.51,0,0,0-.28-4.52Z" transform="translate(-461.3 -193.74)"/><g class="cls-4"><path class="cls-5" d="M561,248s-10.25,32.93-50.06,32.93c-38.28,0-49.62-32.93-49.62-32.93,0,21.93,22.31,59.81,49.84,59.81S561,274.92,561,248Z" transform="translate(-461.3 -193.74)"/></g></svg>