<svg id="レイヤー_1" data-name="レイヤー 1" xmlns="http://www.w3.org/2000/svg" viewBox="0 0 100.15 288"><defs><style>.cls-1{fill:#d12a0a;}.cls-2{fill:#fff;}</style></defs><title>2</title><path class="cls-1" d="M316,243.55a50,50,0,1,1,100,0L416.15,418c0,25.52-19.27,46.13-44,49.17-2,.25-4.09,14.38-6.19,14.38s-4.16-14.13-6.18-14.38A50,50,0,0,1,316,417.55Z" transform="translate(-316 -193.55)"/><path class="cls-2" d="M364.4,232.81H351.65c-2.47,0-4.33.11-6.8.31v-6.71a64.44,64.44,0,0,0,6.75.31h29c2.42,0,4.49-.1,6.7-.31v6.71c-2.16-.2-4.48-.31-6.7-.31h-9.52V244.1h8.06a48.22,48.22,0,0,0,5.85-.3v6.55a50.6,50.6,0,0,0-5.85-.3h-8.06v13.16h10.83a61,61,0,0,0,7.06-.36v6.81a54.49,54.49,0,0,0-7-.36h-32a61.17,61.17,0,0,0-7.06.36V262.9a48.49,48.49,0,0,0,7,.31h.4V247.48a68.25,68.25,0,0,0-.3-6.95h7.26a66.53,66.53,0,0,0-.31,6.85v15.83h7.36Z" transform="translate(-316 -193.55)"/><path class="cls-2" d="M359.87,291.58a23,23,0,0,0,1.91-4.18H349.64c-2.62,0-4.74.1-6.61.25v-6.5a64.08,64.08,0,0,0,6.51.3h32.91c2.42,0,4.58-.1,6.6-.3v6.5c-2-.15-4-.25-6.6-.25H369.24c-.05.15-.05.15-.15.4-.35.91-1.21,2.72-1.76,3.78h14.36c2.77,0,4.23-.05,5.9-.2a57.3,57.3,0,0,0-.26,6.55v22c0,2.72.11,5,.26,7.15h-6.66v-2.22H351.3v2.17h-6.7a58,58,0,0,0,.3-7.16v-22a63,63,0,0,0-.3-6.5c1.61.15,3.27.2,5.94.2Zm-3.93,5.59H351.3v21.88h4.64Zm6,0v3.68h8.12v-3.68Zm0,12.6h8.12v-3.62h-8.12Zm8.12,5.3h-8.12v4h8.12Zm6.05,4h4.83V297.17H376.1Z" transform="translate(-316 -193.55)"/><path class="cls-2" d="M343.74,374.49c1,.05,1.61.1,2.92.1.51,0,2.27,0,5.34-.15,3.83-3.43,5.2-4.64,8-7.51a87.72,87.72,0,0,0-14.21-11.44l4.68-4.59c2.72,1.92,3.23,2.32,4.29,3.12a31,31,0,0,0,5.19-7.1H349.48c-2.72,0-4.48.1-6.24.25v-6.65a56.1,56.1,0,0,0,6.45.3h12.5v-2.17a17.88,17.88,0,0,0-.31-3.37h7.41a17.75,17.75,0,0,0-.3,3.32v2.22h13.1a60,60,0,0,0,6.51-.3v6.65a52.62,52.62,0,0,0-6.25-.25H368a50.66,50.66,0,0,1-8.26,11c2.21,1.86,2.21,1.86,4.88,4.28,4.79-5.14,8.57-9.88,10.24-12.9l6.2,3.83c-.81.85-1.21,1.36-2.68,3.17a167.42,167.42,0,0,1-16.93,17.64c7.36-.55,12.55-1.11,16.13-1.71-1.36-2.22-2.07-3.38-4.19-6.35l5.8-2.82A113.74,113.74,0,0,1,389.1,379l-6.4,3.48c-1.16-2.62-1.56-3.48-2.22-4.84-5,.81-7.76,1.21-13.91,1.87-5.19.55-5.19.55-18.24,1.56a29.65,29.65,0,0,0-3.53.45Z" transform="translate(-316 -193.55)"/><path class="cls-2" d="M350.85,431.19a47.79,47.79,0,0,0,.3,6.35h-7a48.43,48.43,0,0,0,.31-6.5V397.72a56.57,56.57,0,0,0-.21-5.74,44,44,0,0,0,5.14.2h9.83a41.85,41.85,0,0,0,5.14-.2c-.1,1.46-.15,2.67-.15,4.68v7.61c0,2.42.05,3.48.1,4.44-1.16,0-2.82-.1-4.38-.1h-9.12Zm0-32.66h7.5v-2h-7.5Zm0,5.89h7.5v-2h-7.5Zm18.95,21.12a16.43,16.43,0,0,0,8,3.68c-.45.81-.61,1.06-1,1.82a19.11,19.11,0,0,0,2.57.2c1.67,0,1.92-.15,1.92-1.26V408.66h-9.73c-1.61,0-2.82,0-4.38.1.1-1.26.1-2.17.1-4.49v-7.61c0-1.86,0-3.22-.16-4.68a43.1,43.1,0,0,0,5.15.2H382.7a43.45,43.45,0,0,0,5.14-.2c-.15,1.86-.2,3.12-.2,5.69v33.21c0,5.4-1.26,6.35-8.12,6.35-.55,0-.55,0-2.47-.05a22.36,22.36,0,0,0-.9-4.63,16.75,16.75,0,0,0-.86,2.52,23,23,0,0,1-9.37-6.3c-2.37,3.73-5.4,5.84-10.89,7.61a19.46,19.46,0,0,0-3.28-5.19c3-.81,4.39-1.26,5.9-2.22a9.46,9.46,0,0,0,3.58-3.43h-4a37.29,37.29,0,0,0-4.29.25V420.4a25.87,25.87,0,0,0,3.83.2h5.75c.05-.75.1-1.06.1-2.37H357.1a29.17,29.17,0,0,0-3.33.15v-5.14a16.59,16.59,0,0,0,3.17.21h1.31a28.66,28.66,0,0,0-2.16-3.18l5.54-1.21a30.32,30.32,0,0,1,2.62,4.39h3.48a27.19,27.19,0,0,0,2-4.34l5.84,1a33.36,33.36,0,0,1-1.86,3.33H375a18.66,18.66,0,0,0,3.32-.21v5.14a28,28,0,0,0-3.27-.15h-6.5c-.05,1.16-.1,1.52-.16,2.37h6.86a25.77,25.77,0,0,0,3.88-.2v5.34a29.71,29.71,0,0,0-3.93-.2Zm3.47-27h8v-2h-8Zm0,5.89h8v-2h-8Z" transform="translate(-316 -193.55)"/></svg>