<svg id="レイヤー_1" data-name="レイヤー 1" xmlns="http://www.w3.org/2000/svg" viewBox="0 0 100 114"><defs><style>.cls-1{fill:#2b8aa9;}.cls-2{fill:#fff;}</style></defs><title>4</title><path class="cls-1" d="M415.88,71a50,50,0,0,1-43.81,49.62c-2,.25-4.09,14.38-6.19,14.38s-4.15-14.13-6.18-14.38A50,50,0,1,1,415.88,71Z" transform="translate(-315.88 -21)"/><path class="cls-2" d="M392.64,67.2c-1.95-.84-8.52-5.81-13.55-9.48,5-2.18,10-5.69,10.08-7.15.19-2.39-6.62-6.07-8.46-6.81s-7.28,1.29-9.6,1.17c-3.5-.19-.19,5.7,1.65,5.7s5.92-1.35,6.48-.43c.45.75.31,2.8-2.43,5.87-.85-.61-1.6-1.15-2.21-1.57a31.68,31.68,0,0,1-7.18-7.36l-.73-1.84c-.74-1.84-12.7.18-12.7.18a3,3,0,0,0-1.66-2.39c-1.66-.92-7.36-1.29-7,1.29s-7.48,16.25-8.47,17.48c-.74.92.19,1.66,2.76.37a16,16,0,0,0,3.15-2.56c.44,1.2,1,2.7,1.64,4s.84,2.57,1.34,3.31a68.1,68.1,0,0,1-9.26,6.81c-2,1.11-.73,2,6.63,1.48,2.13-.16,4.66-1.51,7.22-3.48.28.8,1.07,1.23,2.35.9,4.23-1.1,21.9-3,24.29-4a1.18,1.18,0,0,0,.72-1.24c6.05,5,9.85,9.74,12.46,9.15C402.32,73.82,402.87,71.61,392.64,67.2Zm-43-3.83a25.18,25.18,0,0,0-4.72-5.86c.65-.7,1.3-1.4,1.9-2.07,1,2.11,2.58,4.9,4.69,5.91C350.91,62,350.28,62.72,349.64,63.37Zm5.52-7.07a54.24,54.24,0,0,0-6.57-2.89c.69-.81,1.18-1.42,1.35-1.67.73-1.11,7-.55,6.81.92A17.74,17.74,0,0,1,355.16,56.3Zm16.68,6.3c-3.44.18-13.91,2.78-14.87,2.94,3.69-4.15,6.67-8.63,7.51-11.23.46,1.27,3.58,4.59,7.64,8.28Z" transform="translate(-315.88 -21)"/><path class="cls-2" d="M369.79,79.75c4.52-.84,8.23-1.51,9.23-1.51,2.58,0,5.33.55,6.07-.73s-.55-6.63-8.1-6.45-26.68,4.42-26.68,4.42c-5,1.29-7.92,0-7.55,1.84.41,2.06,1.1,6.08,7.18,5.71.41,0,.9-.07,1.44-.13-.82.59-1.93,1.35-3.47,2.34-5.15,3.31-7.74,3.08-8.83,7.17-.74,2.76,2.21,7.18,9,3.68s7.18-12.88,7.18-12.88a2.38,2.38,0,0,0,0-.85c1.51-.24,3.19-.52,4.92-.84,0,1.27-.09,2.7-.09,3.35,0,1.29.74,9.2.19,9s-6.08-2.4-6.08-2.4-1.66.37-.55,1.84,5.15,3.32,7,5.16,7,2.76,8.65-.19.37-9.38,0-12.14A23.09,23.09,0,0,1,369.79,79.75Z" transform="translate(-315.88 -21)"/><path class="cls-2" d="M377.55,79.35c-1.66-.19-3.69.55-2.4,2.76,1.66,2.84,5.53,9,5,10.49s-2,1.79-1.24,2.16,4.37,4.1,8.79,1.52,5.89-5.15.74-10.68S379.2,79.53,377.55,79.35Z" transform="translate(-315.88 -21)"/></svg>