<svg id="レイヤー_1" data-name="レイヤー 1" xmlns="http://www.w3.org/2000/svg" viewBox="0 0 100 114"><defs><style>.cls-1{fill:#9e4b5e;}.cls-2{fill:#fff;}</style></defs><title>5</title><path class="cls-1" d="M561,71a50,50,0,0,1-43.82,49.62c-2,.25-4.09,14.38-6.18,14.38s-4.16-14.13-6.18-14.38A50,50,0,1,1,561,71Z" transform="translate(-461.01 -21)"/><path class="cls-2" d="M508.58,86.4a5.91,5.91,0,0,0-4.18,1.73l-3.65,3.65a4.63,4.63,0,0,1-6.55-6.55l-2-2a7.4,7.4,0,1,0,10.47,10.47l3.65-3.65a3.13,3.13,0,0,1,4.43,0,3.14,3.14,0,0,1,.92,2.35l2.77.12a5.92,5.92,0,0,0-5.9-6.16Z" transform="translate(-461.01 -21)"/><path class="cls-2" d="M530.1,47.55a10.66,10.66,0,0,0-14.36-.64l15,15A10.66,10.66,0,0,0,530.1,47.55Z" transform="translate(-461.01 -21)"/><path class="cls-2" d="M511.7,54.58,523.07,66a10.54,10.54,0,0,0,6.34-2.68l-15-15A10.63,10.63,0,0,0,511.7,54.58Z" transform="translate(-461.01 -21)"/><path class="cls-2" d="M491.1,79.37l7.19,7.18,22.37-20.26L511.37,57Z" transform="translate(-461.01 -21)"/></svg>