<svg id="レイヤー_1" data-name="レイヤー 1" xmlns="http://www.w3.org/2000/svg" viewBox="0 0 100 114"><defs><style>.cls-1{fill:#835990;}.cls-2{fill:#fff;}</style></defs><title>6</title><path class="cls-1" d="M706.13,71a50,50,0,0,1-43.81,49.62c-2,.25-4.1,14.38-6.19,14.38S652,120.87,650,120.62A50,50,0,1,1,706.13,71Z" transform="translate(-606.13 -21)"/><path class="cls-2" d="M641,56.35c0-.46,0-.92,0-1.39l.06-.67c.08-.95-.05.23,0,.25-.11-.19.2-1.06.25-1.28a15.78,15.78,0,0,1,.44-1.53c.06-.2.14-.39.21-.59.23-.7-.13.26-.12.26s.46-1,.53-1.1a15.25,15.25,0,0,1,1.3-2c.05,0-.66.78-.18.24l.4-.45c.26-.3.54-.59.83-.87s.59-.55.9-.81a2.7,2.7,0,0,1,.47-.39c-.51.39-.63.48-.34.28l.37-.27a18.92,18.92,0,0,1,2.13-1.26c.24-.13.86-.57,1.14-.54,0,0-1.08.41-.24.11l.75-.28a24.84,24.84,0,0,1,2.52-.71c.44-.1.87-.18,1.31-.26.18,0,.91-.13.22,0s.23,0,.39,0a26.3,26.3,0,0,1,2.81-.12c.48,0,1,0,1.43.06.24,0,.47,0,.7.06.92.08-.63-.13,0,0a24.63,24.63,0,0,1,2.57.61c.41.13.81.29,1.21.43.6.19-.8-.41-.25-.11.22.13.46.23.69.34a21.09,21.09,0,0,1,2.08,1.28c.73.49-.25-.16-.23-.19l.45.38c.38.33.74.67,1.08,1s.53.59.79.89c.46.52-.26-.14-.19-.25s.37.52.35.48A18.5,18.5,0,0,1,669,49.92c.09.18.17.36.25.54.39.8-.14-.27-.11-.28l.41,1.15a25.78,25.78,0,0,1,.65,2.73c.14.73,0-.29,0-.31a4,4,0,0,1,.06.64c0,.44.06.87.07,1.31,0,.87,0,1.73-.1,2.6,0,.62.19-1,.06-.43,0,.17-.06.35-.1.52-.06.33-.14.66-.23,1s-.2.61-.29.91c-.3.93.52-1,0,0-.27.5-.58,1-.89,1.46s.83-.94.1-.15c-.21.22-.41.44-.63.65s-.4.36-.6.54c-.72.66,1-.67.16-.11-.47.32-.94.64-1.43.93-1.95,1.16-4,2-6.07,3a20.36,20.36,0,0,0-7.38,6c-2.29,3.13-3.05,7.14-3.05,10.94a4.7,4.7,0,0,0,9.39,0c0-.48,0-1,0-1.43,0-.2,0-.4,0-.6,0-.46.31-.81,0,.26.25-.73.29-1.54.53-2.28,0-.15.12-.3.16-.45.19-.69-.14.42-.21.47.16-.1.35-.74.44-.91s.34-.55.51-.83c.6-.94-.72.78,0,0a15.73,15.73,0,0,1,1.15-1.16l.31-.26c.59-.53-.87.62-.4.3.28-.19.55-.4.83-.58a28.29,28.29,0,0,1,3.14-1.73,49.3,49.3,0,0,0,6.44-3.38,16.7,16.7,0,0,0,6.39-7.93c2.92-7.61.45-17.25-5.08-23-6.33-6.63-16.46-8-25-5.49a23.77,23.77,0,0,0-11.83,7.47,22.52,22.52,0,0,0-5.06,14.27,4.7,4.7,0,1,0,9.39,0Z" transform="translate(-606.13 -21)"/><circle class="cls-2" cx="48.62" cy="77.46" r="4.8"/></svg>