<svg id="レイヤー_1" data-name="レイヤー 1" xmlns="http://www.w3.org/2000/svg" viewBox="0 0 100 114"><defs><style>.cls-1{fill:#f0f1f0;}.cls-2{fill:#26588c;}</style></defs><title>7</title><path class="cls-1" d="M851.25,71a50,50,0,0,1-43.81,49.62c-2,.25-4.09,14.38-6.19,14.38s-4.15-14.13-6.18-14.38A50,50,0,1,1,851.25,71Z" transform="translate(-751.25 -21)"/><path class="cls-2" d="M801.41,45.11a7.88,7.88,0,1,0-7.88-7.88A7.88,7.88,0,0,0,801.41,45.11Z" transform="translate(-751.25 -21)"/><path class="cls-2" d="M808.24,48.84H794.43c-3.82,0-8,4.15-8,8V83.29a3.45,3.45,0,0,0,3.45,3.45h2.41l1.32,22.58a3.67,3.67,0,0,0,3.67,3.68h8a3.68,3.68,0,0,0,3.68-3.68l1.31-22.58h2.41a3.46,3.46,0,0,0,3.46-3.45V56.81C816.21,53,812.05,48.84,808.24,48.84Z" transform="translate(-751.25 -21)"/></svg>