<svg id="レイヤー_1" data-name="レイヤー 1" xmlns="http://www.w3.org/2000/svg" viewBox="0 0 100 114"><defs><style>.cls-1{fill:#f0f1f0;}.cls-2{fill:#8a3a3c;}</style></defs><title>8</title><path class="cls-1" d="M996.37,71a50,50,0,0,1-43.81,49.62c-2,.25-4.09,14.38-6.19,14.38s-4.15-14.13-6.18-14.38A50,50,0,1,1,996.37,71Z" transform="translate(-896.37 -21)"/><path class="cls-2" d="M946.6,44.86a7.71,7.71,0,1,0-7.7-7.7A7.7,7.7,0,0,0,946.6,44.86Z" transform="translate(-896.37 -21)"/><path class="cls-2" d="M965,89.67,957,70.9l2.65-13.4c.28-5.09-3.55-8.9-7.28-8.9H940.86c-3.73,0-7.56,3.81-7.28,8.9l2.65,13.4-8,18.77a2.73,2.73,0,0,0,2.51,3.79h8.41l2.18,14.77a2.62,2.62,0,0,0,2.62,2.62h5.26a2.62,2.62,0,0,0,2.62-2.62L954,93.46h8.41A2.73,2.73,0,0,0,965,89.67Z" transform="translate(-896.37 -21)"/></svg>