<svg id="レイヤー_1" data-name="レイヤー 1" xmlns="http://www.w3.org/2000/svg" viewBox="0 0 100 114"><defs><style>.cls-1{fill:#f0f1f0;}.cls-2{fill:#26588c;}.cls-3{fill:#8a3a3c;}</style></defs><title>9</title><path class="cls-1" d="M1141.5,71a50,50,0,0,1-43.82,49.62c-2,.25-4.09,14.38-6.18,14.38s-4.16-14.13-6.18-14.38A50,50,0,1,1,1141.5,71Z" transform="translate(-1041.5 -21)"/><path class="cls-2" d="M1077.56,48.54a6.65,6.65,0,1,0-6.65-6.64A6.64,6.64,0,0,0,1077.56,48.54Z" transform="translate(-1041.5 -21)"/><path class="cls-2" d="M1083.31,51.69h-11.65c-3.22,0-6.72,3.5-6.72,6.72V80.74a2.91,2.91,0,0,0,2.91,2.92h2l1.11,19a3.1,3.1,0,0,0,3.1,3.1h6.77a3.1,3.1,0,0,0,3.11-3.1l1.11-19h2a2.91,2.91,0,0,0,2.91-2.92V58.41C1090,55.19,1086.53,51.69,1083.31,51.69Z" transform="translate(-1041.5 -21)"/><path class="cls-3" d="M1106.56,50.14a6.5,6.5,0,1,0-6.5-6.5A6.5,6.5,0,0,0,1106.56,50.14Z" transform="translate(-1041.5 -21)"/><path class="cls-3" d="M1122,87.93,1115.3,72.1l2.24-11.3c.23-4.29-3-7.5-6.14-7.5h-9.69c-3.15,0-6.37,3.21-6.14,7.5l2.24,11.3-6.73,15.83a2.3,2.3,0,0,0,.2,2.17,2.26,2.26,0,0,0,1.91,1h7.1l1.84,12.46a2.21,2.21,0,0,0,2.21,2.21h4.43a2.21,2.21,0,0,0,2.21-2.21l1.84-12.46h7.09a2.27,2.27,0,0,0,1.92-1A2.3,2.3,0,0,0,1122,87.93Z" transform="translate(-1041.5 -21)"/></svg>